{"accessors" : [{"bufferView" : 0, "byteOffset" : 0, "componentType" : 5123, "count" : 12426, "type" : "SCALAR", "max" : [4246], "min" : [0]}, {"bufferView" : 1, "byteOffset" : 0, "componentType" : 5126, "count" : 4247, "type" : "VEC3", "max" : [2.5835318565368652, 2.899902820587158, 10.24984073638916], "min" : [-2.5835318565368652, -2.899902582168579, -10.24984073638916]}, {"bufferView" : 1, "byteOffset" : 12, "componentType" : 5126, "count" : 4247, "type" : "VEC3", "max" : [1.0000044107437134, 1.0000044107437134, 1.0000044107437134], "min" : [-1.0000044107437134, -1.0000044107437134, -1.0000044107437134]}, {"bufferView" : 1, "byteOffset" : 24, "componentType" : 5126, "count" : 4247, "type" : "VEC2", "max" : [1.0015807151794434, -0.006975260563194752], "min" : [0.006445467472076416, -0.99689120054245]}, {"bufferView" : 0, "byteOffset" : 24852, "componentType" : 5123, "count" : 72, "type" : "SCALAR", "max" : [39], "min" : [0]}, {"bufferView" : 2, "byteOffset" : 0, "componentType" : 5126, "count" : 40, "type" : "VEC3", "max" : [1.757577896118164, 0.5838088393211365, 9.048894882202148], "min" : [-1.5719413757324219, -0.9629294276237488, -0.5654483437538147]}, {"bufferView" : 2, "byteOffset" : 12, "componentType" : 5126, "count" : 40, "type" : "VEC3", "max" : [1.0000044107437134, 0.6996641755104065, 0.7313777208328247], "min" : [-1.0000044107437134, 0, -0.009700464084744453]}, {"bufferView" : 2, "byteOffset" : 24, "componentType" : 5126, "count" : 40, "type" : "VEC2", "max" : [0.4319888651371002, -0.8186469078063965], "min" : [0.3424752950668335, -0.8658217787742615]}, {"bufferView" : 0, "byteOffset" : 24996, "componentType" : 5123, "count" : 336, "type" : "SCALAR", "max" : [191], "min" : [0]}, {"bufferView" : 3, "byteOffset" : 0, "componentType" : 5126, "count" : 192, "type" : "VEC3", "max" : [0.029043802991509438, 1.86780846118927, 1.8678089380264282], "min" : [-0.029043812304735184, -1.8678083419799805, -1.8678086996078491]}, {"bufferView" : 3, "byteOffset" : 12, "componentType" : 5126, "count" : 192, "type" : "VEC3", "max" : [1.0000044107437134, 0.9994019865989685, 0.9994019865989685], "min" : [-1.0000044107437134, -0.9994019865989685, -0.9994019865989685]}, {"bufferView" : 3, "byteOffset" : 24, "componentType" : 5126, "count" : 192, "type" : "VEC2", "max" : [0.5877794027328491, -0.8972454071044922], "min" : [0.44209519028663635, -0.9927623867988586]}, {"bufferView" : 0, "byteOffset" : 25668, "componentType" : 5123, "count" : 1380, "type" : "SCALAR", "max" : [609], "min" : [0]}, {"bufferView" : 4, "byteOffset" : 0, "componentType" : 5126, "count" : 610, "type" : "VEC3", "max" : [8.99631118774414, 0.2886675298213959, 7.746783256530762], "min" : [-8.996216773986816, -0.2886675000190735, -9.687207221984863]}, {"bufferView" : 4, "byteOffset" : 12, "componentType" : 5126, "count" : 610, "type" : "VEC3", "max" : [0.9997156858444214, 1.0000044107437134, 0.9966194033622742], "min" : [-0.9997155070304871, -1.0000044107437134, -0.9993343949317932]}, {"bufferView" : 4, "byteOffset" : 24, "componentType" : 5126, "count" : 610, "type" : "VEC2", "max" : [0.42488574981689453, -0.874762237071991], "min" : [0.009441569447517395, -0.9928823113441467]}], "asset" : {"generator" : "Aspose.3D 20.5.1", "version" : "2.0"}, "buffers" : [{"uri" : "buffer.bin", "byteLength" : 191296}], "bufferViews" : [{"buffer" : 0, "byteOffset" : 0, "byteLength" : 28428, "target" : 34963}, {"buffer" : 0, "byteOffset" : 28432, "byteLength" : 135904, "byteStride" : 32, "target" : 34962}, {"buffer" : 0, "byteOffset" : 164340, "byteLength" : 1280, "byteStride" : 32, "target" : 34962}, {"buffer" : 0, "byteOffset" : 165624, "byteLength" : 6144, "byteStride" : 32, "target" : 34962}, {"buffer" : 0, "byteOffset" : 171772, "byteLength" : 19520, "byteStride" : 32, "target" : 34962}], "images" : [{"uri" : "C:\\Users\\user\\Desktop\\AW101\\textures\\AW101.png"}, {"uri" : "C:\\Users\\user\\Desktop\\AW101\\textures\\AW101.png"}, {"uri" : "C:\\Users\\user\\Desktop\\AW101\\textures\\AW101.png"}, {"uri" : "C:\\Users\\user\\Desktop\\AW101\\textures\\AW101.png"}], "materials" : [{"pbrMetallicRoughness" : {"baseColorFactor" : [0.501960813999176, 0.501960813999176, 0.501960813999176, 1], "baseColorTexture" : {"index" : 0, "texCoord" : 0}, "metallicFactor" : 0, "roughnessFactor" : 0}, "emissiveFactor" : [0, 0, 0], "alphaMode" : "OPAQUE", "doubleSided" : false}, {"pbrMetallicRoughness" : {"baseColorFactor" : [0.49803921580314636, 0.49803921580314636, 0.49803921580314636, 1], "baseColorTexture" : {"index" : 1, "texCoord" : 0}, "metallicFactor" : 0, "roughnessFactor" : 0}, "emissiveFactor" : [0, 0, 0], "alphaMode" : "OPAQUE", "doubleSided" : false}, {"pbrMetallicRoughness" : {"baseColorFactor" : [0.501960813999176, 0.501960813999176, 0.501960813999176, 1], "baseColorTexture" : {"index" : 2, "texCoord" : 0}, "metallicFactor" : 0, "roughnessFactor" : 0}, "emissiveFactor" : [0, 0, 0], "alphaMode" : "OPAQUE", "doubleSided" : false}, {"pbrMetallicRoughness" : {"baseColorFactor" : [0.501960813999176, 0.501960813999176, 0.501960813999176, 1], "baseColorTexture" : {"index" : 3, "texCoord" : 0}, "metallicFactor" : 0, "roughnessFactor" : 0}, "emissiveFactor" : [0, 0, 0], "alphaMode" : "OPAQUE", "doubleSided" : false}], "meshes" : [{"primitives" : [{"attributes" : {"POSITION" : 1, "NORMAL" : 2, "TEXCOORD_0" : 3}, "indices" : 0, "material" : 0, "mode" : 4}, {"attributes" : {"POSITION" : 5, "NORMAL" : 6, "TEXCOORD_0" : 7}, "indices" : 4, "material" : 1, "mode" : 4}]}, {"primitives" : [{"attributes" : {"POSITION" : 9, "NORMAL" : 10, "TEXCOORD_0" : 11}, "indices" : 8, "material" : 2, "mode" : 4}]}, {"primitives" : [{"attributes" : {"POSITION" : 13, "NORMAL" : 14, "TEXCOORD_0" : 15}, "indices" : 12, "material" : 3, "mode" : 4}]}], "nodes" : [{"matrix" : [1, 0, 0, 0, 0, 1, -3.552713678800501E-15, 0, 0, 3.552713678800501E-15, 1, 0, 0.5339939594268799, 2.1357152462005615, -8.863545417785645, 1], "mesh" : 1, "name" : "AW101_backrotor"}, {"matrix" : [1, 0, 0, 0, 0, 1, -3.552713678800501E-15, 0, 0, 3.552713678800501E-15, 1, 0, 0.03442094475030899, 2.5338363647460938, 3.215367555618286, 1], "mesh" : 2, "name" : "AW101_propellar"}, {"children" : [0, 1], "matrix" : [9.177385330200195, 0, 0, 0, 0, 9.177385330200186, 4.011562566820766E-07, 0, 0, -4.011562566820766E-07, 9.177385330200186, 0, 0.005797276739031076, -14.243204116821289, 14.8287935256958, 1], "mesh" : 0, "name" : "AW101"}], "samplers" : [{"magFilter" : 9729, "minFilter" : 9729, "wrapS" : 10497, "wrapT" : 10497}, {"magFilter" : 9729, "minFilter" : 9729, "wrapS" : 10497, "wrapT" : 10497}, {"magFilter" : 9729, "minFilter" : 9729, "wrapS" : 10497, "wrapT" : 10497}, {"magFilter" : 9729, "minFilter" : 9729, "wrapS" : 10497, "wrapT" : 10497}], "scene" : 0, "scenes" : [{"nodes" : [2]}], "textures" : [{"sampler" : 0, "source" : 0}, {"sampler" : 1, "source" : 1}, {"sampler" : 2, "source" : 2}, {"sampler" : 3, "source" : 3}]}